<svg id="Layer_1" data-name="Layer 1" xmlns="http://www.w3.org/2000/svg" xmlns:xlink="http://www.w3.org/1999/xlink" viewBox="0 0 64 64"><defs><style>.cls-1{fill:#fff;}.cls-2{mask:url(#mask);}.cls-3{filter:url(#luminosity-invert-noclip);}</style><filter id="luminosity-invert-noclip" x="-3.75" y="-3.75" width="71.5" height="71.5" filterUnits="userSpaceOnUse" color-interpolation-filters="sRGB"><feColorMatrix values="-1 0 0 0 1 0 -1 0 0 1 0 0 -1 0 1 0 0 0 1 0" result="invert"/><feFlood flood-color="#fff" result="bg"/><feBlend in="invert" in2="bg"/></filter><mask id="mask" x="-3.75" y="-3.75" width="71.5" height="71.5" maskUnits="userSpaceOnUse"><g class="cls-3"><rect class="cls-1" x="26.7" y="-13.25" width="10.61" height="90.51" transform="translate(32 -13.25) rotate(45)"/></g></mask></defs><g class="cls-2"><path d="M32,13C19.77,13,8.68,19.71.5,30.58a2.54,2.54,0,0,0,0,3C8.68,44.48,19.77,51.17,32,51.17s23.32-6.69,31.5-17.55a2.54,2.54,0,0,0,0-3C55.32,19.71,44.23,13,32,13Zm.88,32.51A13.46,13.46,0,1,1,45.43,33,13.47,13.47,0,0,1,32.88,45.53Zm-.41-6.2a7.25,7.25,0,1,1,6.77-6.77A7.25,7.25,0,0,1,32.47,39.33Z"/></g><rect x="30.23" y="-13.25" width="3.54" height="90.51" transform="translate(32 -13.25) rotate(45)"/></svg>