<svg id="Layer_1" data-name="Layer 1" xmlns="http://www.w3.org/2000/svg" viewBox="0 0 64 64"><defs><style>.cls-1{fill:#167ee6;}.cls-2{fill:#12b347;}.cls-3{fill:#0f993e;}.cls-4{fill:#ffd500;}.cls-5{fill:#ff4b26;}.cls-6{fill:#d93f21;}</style></defs><path class="cls-1" d="M53,28.05H34.47A1.48,1.48,0,0,0,33,29.53v5.92a1.49,1.49,0,0,0,1.48,1.49H44.92a14,14,0,0,1-6,7l4.46,7.71a22.3,22.3,0,0,0,11.37-19.5,15.06,15.06,0,0,0-.26-2.91A1.48,1.48,0,0,0,53,28.05Z"/><path class="cls-2" d="M32,45.84a13.83,13.83,0,0,1-12-6.93l-7.71,4.45a22.71,22.71,0,0,0,31.05,8.33h0L38.91,44A13.72,13.72,0,0,1,32,45.84Z"/><path class="cls-3" d="M43.37,51.69h0L38.91,44A13.72,13.72,0,0,1,32,45.84v8.9A22.77,22.77,0,0,0,43.37,51.69Z"/><path class="cls-4" d="M18.16,32A13.72,13.72,0,0,1,20,25.09l-7.71-4.45a22.62,22.62,0,0,0,0,22.72L20,38.91A13.72,13.72,0,0,1,18.16,32Z"/><path class="cls-5" d="M32,18.16a13.81,13.81,0,0,1,8.79,3.16,1.47,1.47,0,0,0,2-.09L47,17a1.51,1.51,0,0,0-.08-2.19,22.69,22.69,0,0,0-34.57,5.8L20,25.09A13.83,13.83,0,0,1,32,18.16Z"/><path class="cls-6" d="M40.79,21.32a1.47,1.47,0,0,0,2-.09L47,17a1.51,1.51,0,0,0-.08-2.19A22.71,22.71,0,0,0,32,9.26v8.9A13.81,13.81,0,0,1,40.79,21.32Z"/></svg>