<svg id="Layer_1" data-name="Layer 1" xmlns="http://www.w3.org/2000/svg" viewBox="0 0 64 64">
	<defs>
		<style>
			.cls-1 {
				fill: #03a9f4;
			}
			.cls-2 {
				fill: #fff;
			}
		</style>
	</defs>
	<rect class="cls-1" width="64" height="64" rx="7.92" />
	<path
		class="cls-2"
		d="M52,19.62a16.86,16.86,0,0,1-4.72,1.3,8.16,8.16,0,0,0,3.6-4.53,16.15,16.15,0,0,1-5.19,2,8.23,8.23,0,0,0-14,7.47,23.24,23.24,0,0,1-16.87-8.56,8.26,8.26,0,0,0-1.12,4.13,8.17,8.17,0,0,0,3.64,6.8,8,8,0,0,1-3.7-1v.09a8.24,8.24,0,0,0,6.56,8,8.33,8.33,0,0,1-2.15.26,8,8,0,0,1-1.55-.13,8.27,8.27,0,0,0,7.65,5.7A16.51,16.51,0,0,1,14,44.66a14.13,14.13,0,0,1-2-.12A23,23,0,0,0,24.6,48.22c15,0,23.29-12.48,23.29-23.29,0-.36,0-.71,0-1.06A16.42,16.42,0,0,0,52,19.62Z"
	/>
</svg>
